<?xml version="1.0" encoding="UTF-8" standalone="no"?>
<svg
   xmlns:dc="http://purl.org/dc/elements/1.1/"
   xmlns:cc="http://creativecommons.org/ns#"
   xmlns:rdf="http://www.w3.org/1999/02/22-rdf-syntax-ns#"
   xmlns:svg="http://www.w3.org/2000/svg"
   xmlns="http://www.w3.org/2000/svg"
   viewBox="0 0 1390 1390"
   height="1390"
   width="1390"
   xml:space="preserve"
   id="svg2"
   version="1.1"><metadata
     id="metadata8"><rdf:RDF><cc:Work
         rdf:about=""><dc:format>image/svg+xml</dc:format><dc:type
           rdf:resource="http://purl.org/dc/dcmitype/StillImage" /><dc:title></dc:title></cc:Work></rdf:RDF></metadata><defs
     id="defs6" /><g
     transform="matrix(1.3333333,0,0,-1.3333333,0,1390)"
     id="g10"><g
       id="g16"
       transform="matrix(0.208589,0,0,0.208589,-2376.2439,-488.30589)"><path
         d="m 15342,3090.19 -783.6,415.8 -1.1,0.57 c -80.3,38.16 -138.5,108.3 -159.8,192.53 -13.8,53.41 -23.1,112.04 -27.8,174.37 -5.8,75.6 19.1,151.59 70.2,214.05 91.5,112.23 173.5,300.55 214.2,402.85 18.9,47.51 50.1,89.65 90.3,121.77 65.1,52.07 110,124.84 126.4,204.94 19.4,95.81 14.7,202 7.5,274.17 -5.5,54.55 -23.5,107.82 -52.3,154.09 l -26.8,42.98 c -29.6,47.16 -45.3,101.55 -45.3,157.31 v 486.59 c 0,67.78 -18.1,132.27 -52.5,186.57 -119.1,186.82 -307,265.7 -343.2,279.49 -6.6,2.61 -13.2,5.73 -20,8.93 -121.7,58.23 -255.6,87.59 -399.2,87.59 -25.7,0 -51.7,-0.94 -78,-2.83 -173.3,12.41 -333.8,-16.1 -476.9,-84.66 -7.1,-3.29 -13.7,-6.4 -20.1,-8.91 -36.4,-13.91 -224.3,-92.79 -343.4,-279.68 -34.4,-54.24 -52.6,-118.73 -52.6,-186.5 v -486.59 c 0,-55.76 -15.6,-110.15 -45.2,-157.36 l -26.8,-42.97 c -28.8,-46.23 -46.9,-99.5 -52.3,-154.01 -7.3,-72.23 -11.9,-178.42 7.5,-274.28 16.4,-80.03 61.3,-152.8 126.4,-204.87 40.2,-32.12 71.4,-74.26 90.3,-121.82 40.7,-102.25 122.7,-290.61 214.3,-402.85 51,-62.41 75.9,-138.4 70.1,-214.05 -4.7,-62.23 -14.1,-120.86 -27.8,-174.41 -21.3,-84.14 -79.6,-154.28 -159.8,-192.44 l -771.2,-409.03 c -491.6,428.93 -773.1,1046.07 -773.1,1696.59 0,1241.52 1010.1,2251.57 2251.6,2251.57 1241.6,0 2251.6,-1010.05 2251.6,-2251.57 0,-654.78 -284.6,-1274.61 -781.6,-1703.93 z M 13872,7222.1 c -1338.8,0 -2428,-1089.19 -2428,-2427.98 0,-1338.81 1089.2,-2427.98 2428,-2427.98 1338.8,0 2428,1089.17 2428,2427.98 0,1338.79 -1089.2,2427.98 -2428,2427.98"
         style="fill:#2e2d2d;fill-opacity:1;fill-rule:nonzero;stroke:none"
         id="path18" /></g></g></svg>